<svg width="18" height="20" viewBox="0 0 18 20" fill="none" xmlns="http://www.w3.org/2000/svg">
<path d="M1 20C0.716667 20 0.479333 19.904 0.288 19.712C0.0960001 19.5207 0 19.2833 0 19V15C0 14.45 0.195667 13.9793 0.587 13.588C0.979 13.196 1.45 13 2 13H16C16.55 13 17.021 13.196 17.413 13.588C17.8043 13.9793 18 14.45 18 15V19C18 19.2833 17.904 19.5207 17.712 19.712C17.5207 19.904 17.2833 20 17 20H1ZM2 11V8C2 7.45 2.196 6.979 2.588 6.587C2.97933 6.19566 3.45 6 4 6H8V4.55C7.7 4.35 7.45833 4.10833 7.275 3.825C7.09167 3.54166 7 3.2 7 2.8C7 2.55 7.05 2.304 7.15 2.062C7.25 1.82066 7.4 1.6 7.6 1.4L8.65 0.349997C8.68333 0.316663 8.8 0.266664 9 0.199997C9.03333 0.199997 9.15 0.249997 9.35 0.349997L10.4 1.4C10.6 1.6 10.75 1.82066 10.85 2.062C10.95 2.304 11 2.55 11 2.8C11 3.2 10.9083 3.54166 10.725 3.825C10.5417 4.10833 10.3 4.35 10 4.55V6H14C14.55 6 15.021 6.19566 15.413 6.587C15.8043 6.979 16 7.45 16 8V11H2Z" fill="#B6BAC3"/>
</svg>
