<svg width="22" height="18" viewBox="0 0 22 18" fill="none" xmlns="http://www.w3.org/2000/svg">
<path d="M11 0.046875C7.93906 0.046875 5.16875 0.547969 3.20187 1.33594C2.21797 1.72969 1.4375 2.19375 0.92375 2.68125C0.410469 3.16406 0.171875 3.64687 0.171875 4.125C0.171875 4.60313 0.410469 5.08594 0.92375 5.56875C1.4375 6.05625 2.21797 6.52031 3.20187 6.91406C5.16875 7.70156 7.93906 8.20312 11 8.20312C14.0609 8.20312 16.8312 7.70156 18.8 6.91406C19.7797 6.52031 20.5625 6.05625 21.0781 5.56875C21.5891 5.08594 21.8281 4.60313 21.8281 4.125C21.8281 3.64687 21.5891 3.16406 21.0781 2.68125C20.5625 2.19375 19.7797 1.72969 18.8 1.33594C16.8312 0.547969 14.0609 0.046875 11 0.046875ZM11.0047 0.681094C13.4094 0.681094 15.5891 0.989062 17.1969 1.50469C18.0031 1.7625 18.6688 2.06719 19.1609 2.44219C19.6578 2.8125 20.0047 3.28594 20.0047 3.84375C20.0047 4.40156 19.6578 4.875 19.1609 5.24531C18.6688 5.62031 18.0031 5.925 17.1969 6.18281C15.5891 6.69844 13.4094 7.00781 11.0047 7.00781C8.6 7.00781 6.42031 6.69844 4.8125 6.18281C4.00625 5.925 3.33922 5.62031 2.84609 5.24531C2.35344 4.875 2.00469 4.40156 2.00469 3.84375C2.00469 3.28594 2.35344 2.8125 2.84609 2.44219C3.33922 2.06719 4.00625 1.7625 4.8125 1.50469C6.42031 0.989062 8.6 0.681094 11.0047 0.681094ZM11.0047 1.52344C8.67031 1.52344 6.56094 1.83281 5.06562 2.30625C4.32031 2.54531 3.72969 2.83125 3.35516 3.1125C2.97969 3.39844 2.84844 3.64219 2.84844 3.84375C2.84844 4.04531 2.97969 4.28906 3.35516 4.575C3.72969 4.85625 4.32031 5.14219 5.06562 5.38125C6.56094 5.85469 8.67031 6.16406 11.0047 6.16406C13.3391 6.16406 15.4484 5.85469 16.9437 5.38125C17.6891 5.14219 18.2797 4.85625 18.6547 4.575C19.0297 4.28906 19.1609 4.04531 19.1609 3.84375C19.1609 3.64219 19.0297 3.39844 18.6547 3.1125C18.2797 2.83125 17.6891 2.54531 16.9437 2.30625C15.4484 1.83281 13.3391 1.52344 11.0047 1.52344ZM0.171875 6.00937V13.875C0.171875 14.4937 0.4475 15.0281 1.00156 15.5344C1.55516 16.0406 2.38719 16.4906 3.40719 16.8516C5.44531 17.5781 8.225 17.9531 11 17.9531C13.775 17.9531 16.5547 17.5781 18.5938 16.8516C19.6109 16.4906 20.4453 16.0406 20.9984 15.5344C21.5516 15.0281 21.8281 14.4937 21.8281 13.875V6.00937C21.7719 6.07031 21.7156 6.12656 21.6547 6.18281C21.0312 6.77344 20.1641 7.27969 19.1094 7.69687C17.0094 8.54062 14.15 9.04688 11 9.04688C7.85 9.04688 4.99062 8.54062 2.88828 7.69687C1.83594 7.27969 0.969219 6.77344 0.344375 6.18281C0.284375 6.12656 0.227187 6.07031 0.171875 6.00937ZM3.5 10.125L6.51875 12.3844C8.07969 11.6672 9.88438 10.7859 12.8797 10.7859C14.7547 10.7859 18.5047 12 18.5047 12.9422C18.5047 13.875 14.7547 15.0938 12.8797 15.0938C9.88438 15.0938 8.07969 14.2078 6.51875 13.4906L3.5 15.75V10.125Z" fill="#B6BAC3"/>
</svg>
