<svg width="20" height="18" viewBox="0 0 20 18" fill="none" xmlns="http://www.w3.org/2000/svg">
<path d="M6 17.5C4.4087 17.5 2.88258 16.8679 1.75736 15.7426C0.632141 14.6174 0 13.0913 0 11.5C0 8.186 3 2.5 6 2.5C9 2.5 12 8.186 12 11.5C12 13.0913 11.3679 14.6174 10.2426 15.7426C9.11742 16.8679 7.5913 17.5 6 17.5ZM12.612 15.339C13.5109 14.2619 14.0023 12.9029 14 11.5C14 8.982 12.268 5.095 10.12 3.373C11.213 1.727 12.607 0.5 14 0.5C17 0.5 20 6.186 20 9.5C20.0003 10.4061 19.7953 11.3005 19.4005 12.1161C19.0057 12.9317 18.4313 13.6472 17.7204 14.2091C17.0095 14.7709 16.1806 15.1645 15.2958 15.3602C14.4111 15.5558 13.4935 15.5486 12.612 15.339Z" fill="#B6BAC3"/>
</svg>
