<svg width="18" height="16" viewBox="0 0 18 16" fill="none" xmlns="http://www.w3.org/2000/svg">
<path d="M5.09484 7C5.24277 6.9993 5.38936 7.02794 5.52614 7.08427C5.66292 7.14059 5.78718 7.22347 5.89172 7.32812L6.61875 8.05516C6.63616 8.07259 6.65684 8.08642 6.67961 8.09585C6.70237 8.10529 6.72677 8.11015 6.75141 8.11015C6.77605 8.11015 6.80045 8.10529 6.82321 8.09585C6.84597 8.08642 6.86665 8.07259 6.88406 8.05516L7.60969 7.32812C7.71423 7.22347 7.83849 7.14059 7.97527 7.08427C8.11205 7.02794 8.25864 6.9993 8.40656 7H17.6213C17.6705 7.00049 17.7194 6.99128 17.765 6.97289C17.8107 6.9545 17.8523 6.9273 17.8875 6.89282C17.9227 6.85835 17.9507 6.81728 17.97 6.77197C17.9893 6.72666 17.9995 6.678 18 6.62875V6.625C17.9995 6.19292 17.85 5.77423 17.5768 5.43951C17.3035 5.1048 16.9232 4.87452 16.5 4.7875C16.4616 3.39578 15.8906 2.23094 14.8355 1.4125C13.8595 0.65125 12.5555 0.25 11.0625 0.25H7.6875C4.48969 0.25 2.32359 2.06734 2.25 4.7875C1.82677 4.87452 1.44649 5.1048 1.17325 5.43951C0.90001 5.77423 0.750528 6.19292 0.75 6.625C0.75 6.72446 0.789509 6.81984 0.859835 6.89017C0.930161 6.96049 1.02554 7 1.125 7H5.09484ZM8.71594 8.5C8.66668 8.49996 8.61789 8.50963 8.57237 8.52845C8.52685 8.54727 8.48548 8.57487 8.45063 8.60969L7.41281 9.64797C7.23701 9.82372 6.99859 9.92246 6.75 9.92246C6.50141 9.92246 6.263 9.82372 6.08719 9.64797L5.04938 8.60969C5.01452 8.57487 4.97315 8.54727 4.92763 8.52845C4.88211 8.50963 4.83332 8.49996 4.78406 8.5H1.53094C1.35476 8.49922 1.18398 8.56075 1.04879 8.67372C0.913601 8.7867 0.82271 8.94383 0.792188 9.11734C0.764027 9.2851 0.749916 9.4549 0.75 9.625C0.75 11.0589 1.74047 12.227 2.96531 12.25C3.07922 12.9587 3.35484 13.5991 3.76969 14.1002C4.38328 14.8413 5.27531 15.25 6.28125 15.25H12.4688C13.4747 15.25 14.3667 14.8413 14.9803 14.0992C15.3952 13.5981 15.6708 12.9578 15.7847 12.2491C17.0095 12.227 18 11.0589 18 9.62406C18.0001 9.45397 17.986 9.28416 17.9578 9.11641C17.9271 8.94306 17.8361 8.78615 17.7009 8.67336C17.5658 8.56058 17.3951 8.49918 17.2191 8.5H8.71594Z" fill="#B6BAC3"/>
</svg>
