<svg width="11" height="18" viewBox="0 0 11 18" fill="none" xmlns="http://www.w3.org/2000/svg">
<path d="M6.80002 9L1.14622 2.844C0.914287 2.60976 0.78418 2.29344 0.78418 1.9638C0.78418 1.63416 0.914287 1.31784 1.14622 1.0836C1.26011 0.967949 1.39587 0.876106 1.54559 0.813417C1.69531 0.750728 1.85601 0.718445 2.01832 0.718445C2.18064 0.718445 2.34133 0.750728 2.49105 0.813417C2.64077 0.876106 2.77653 0.967949 2.89042 1.0836L9.78442 8.118C10.016 8.35277 10.1459 8.6693 10.1459 8.9991C10.1459 9.32889 10.016 9.64542 9.78442 9.8802L2.89042 16.9146C2.77653 17.0302 2.64077 17.1221 2.49105 17.1848C2.34133 17.2475 2.18064 17.2798 2.01832 17.2798C1.85601 17.2798 1.69531 17.2475 1.54559 17.1848C1.39587 17.1221 1.26011 17.0302 1.14622 16.9146C0.914287 16.6804 0.78418 16.364 0.78418 16.0344C0.78418 15.7048 0.914287 15.3884 1.14622 15.1542L6.80002 9Z" fill="black"/>
</svg>
