<svg width="20" height="20" viewBox="0 0 20 20" fill="none" xmlns="http://www.w3.org/2000/svg">
<path d="M13.54 6.46C15.5 8.42 15.5 11.58 13.54 13.54C11.58 15.5 8.42001 15.5 6.47001 13.54C4.52001 11.58 4.50001 8.42 6.47001 6.46C8.44001 4.5 11.58 4.5 13.54 6.46ZM17.47 2.55C17.47 2.55 16.5 2.67 15.43 3.36C15.2596 2.24407 14.7335 1.21296 13.93 0.419998C13.4149 0.916733 13.0415 1.54176 12.8481 2.23074C12.6548 2.91973 12.6485 3.64779 12.83 4.34C14.22 4.7 15.3 5.78 15.66 7.17C16.78 7.47 18.34 7.32 19.58 6.07C18.7961 5.27798 17.7804 4.75611 16.68 4.58C17.07 4 17.38 3.33 17.47 2.55ZM2.53001 17.45C2.53001 17.45 3.50001 17.33 4.57001 16.64C4.72001 17.68 5.22001 18.73 6.07001 19.58C7.32001 18.34 7.47001 16.78 7.17001 15.66C6.48848 15.4842 5.86651 15.1289 5.36881 14.6312C4.87111 14.1335 4.51586 13.5115 4.34001 12.83C3.22001 12.53 1.66001 12.68 0.420013 13.93C1.26001 14.77 2.29001 15.27 3.32001 15.42C2.93001 16 2.62001 16.68 2.53001 17.45Z" fill="#B6BAC3"/>
</svg>
